<?xml version="1.0" encoding="UTF-8"?>
<svg id="a" data-name="Layer 1" xmlns="http://www.w3.org/2000/svg" viewBox="0 0 512 115.32">
  <defs>
    <style>
      .b, .c {
        stroke-width: 0px;
      }

      .c {
        fill: #231f20;
      }
    </style>
  </defs>
  <path class="b" d="m20.4,109.09V.21h73.37v18.98h-50.35v25.95h46.58v18.98h-46.58v26h50.56v18.98H20.4Z"/>
  <path class="b" d="m22.32,97.78s-7.24,17.34-22.32,15.83c0,0,13.42,6,29.71-4.54,16.29-10.54-7.39-11.29-7.39-11.29Z"/>
  <path class="b" d="m20.61,96.57s-.8,7.84-6.71,12.52c-5.91,4.67-.93,4.67-.93,4.67l8.33-.49s8.1-4.82,18.06-4.2c9.95.62-18.1-12.5-18.1-12.5h-.65Z"/>
  <g>
    <path class="c" d="m133.74,110.43c-6.22,0-11.83-1.61-16.86-4.82s-9-7.96-11.93-14.22c-2.93-6.27-4.39-13.96-4.39-23.09s1.51-17.18,4.53-23.41c3.02-6.23,7.04-10.9,12.07-14.01,5.03-3.11,10.54-4.66,16.54-4.66,4.58,0,8.41.77,11.48,2.32s5.56,3.46,7.46,5.75c1.9,2.29,3.35,4.54,4.34,6.74h.69V0h22.64v109.09h-22.37v-13.1h-.96c-1.07,2.27-2.57,4.52-4.5,6.74s-4.44,4.06-7.51,5.51c-3.07,1.46-6.81,2.18-11.21,2.18Zm7.19-18.06c3.66,0,6.76-1,9.3-3.01,2.54-2.01,4.49-4.82,5.86-8.44,1.37-3.62,2.05-7.87,2.05-12.73s-.68-9.09-2.02-12.68c-1.35-3.59-3.3-6.36-5.86-8.31s-5.67-2.93-9.32-2.93-6.87,1.01-9.43,3.04c-2.56,2.02-4.49,4.83-5.81,8.42-1.31,3.59-1.97,7.74-1.97,12.46s.67,8.96,2,12.6c1.33,3.64,3.27,6.48,5.81,8.52s5.67,3.06,9.4,3.06Z"/>
    <path class="c" d="m228.68,110.69c-8.42,0-15.65-1.71-21.71-5.14-6.06-3.43-10.72-8.29-13.98-14.6s-4.9-13.77-4.9-22.4,1.63-15.8,4.9-22.16c3.27-6.35,7.87-11.31,13.82-14.86,5.95-3.55,12.93-5.33,20.96-5.33,5.4,0,10.43.86,15.1,2.58,4.67,1.72,8.75,4.31,12.25,7.75,3.5,3.45,6.22,7.77,8.18,12.97,1.95,5.2,2.93,11.28,2.93,18.25v6.23h-69.09v-14.06h47.73c0-3.27-.71-6.16-2.13-8.68-1.42-2.52-3.38-4.5-5.89-5.94-2.5-1.44-5.41-2.16-8.71-2.16s-6.49.79-9.14,2.37-4.71,3.69-6.21,6.34c-1.49,2.65-2.26,5.59-2.29,8.82v13.37c0,4.05.75,7.54,2.26,10.49,1.51,2.95,3.65,5.22,6.42,6.82,2.77,1.6,6.05,2.4,9.85,2.4,2.52,0,4.83-.35,6.93-1.07,2.1-.71,3.89-1.77,5.38-3.2,1.49-1.42,2.63-3.16,3.41-5.22l20.99,1.39c-1.07,5.04-3.24,9.44-6.53,13.18-3.28,3.75-7.51,6.66-12.68,8.74-5.17,2.08-11.13,3.12-17.87,3.12Z"/>
    <path class="c" d="m296.23,61.79v47.3h-22.69V27.27h21.63v14.43h.96c1.81-4.76,4.85-8.53,9.11-11.32,4.26-2.79,9.43-4.18,15.5-4.18,5.68,0,10.63,1.24,14.86,3.73s7.51,6.03,9.86,10.63c2.34,4.6,3.51,10.08,3.51,16.43v52.1h-22.69v-48.05c.04-5.01-1.24-8.92-3.84-11.75-2.59-2.82-6.16-4.23-10.71-4.23-3.05,0-5.74.66-8.07,1.97-2.33,1.32-4.14,3.22-5.43,5.73-1.3,2.5-1.96,5.51-2,9.03Z"/>
    <path class="c" d="m454.41,0h23.07v70.85c0,7.96-1.89,14.91-5.67,20.88s-9.06,10.61-15.85,13.93c-6.79,3.32-14.68,4.98-23.71,4.98s-16.98-1.66-23.76-4.98c-6.78-3.32-12.06-7.96-15.82-13.93-3.76-5.97-5.65-12.93-5.65-20.88V0h23.07v68.88c0,4.15.92,7.85,2.74,11.08,1.83,3.23,4.41,5.77,7.75,7.62,3.34,1.85,7.23,2.77,11.67,2.77s8.37-.92,11.69-2.77c3.32-1.85,5.9-4.39,7.72-7.62,1.83-3.23,2.75-6.92,2.75-11.08V0Z"/>
    <path class="c" d="m512,0v109.09h-23.07V0h23.07Z"/>
  </g>
</svg>