<?xml version="1.0" encoding="UTF-8"?><svg id="a" xmlns="http://www.w3.org/2000/svg" xmlns:xlink="http://www.w3.org/1999/xlink" viewBox="0 0 386.12 491.44"><defs><linearGradient id="b" x1=".91" y1="208.71" x2="374.72" y2="208.71" gradientTransform="translate(-63.3 81.25) rotate(-19.95) scale(1.03 1) skewX(1.13)" gradientUnits="userSpaceOnUse"><stop offset="0" stop-color="#447bbe"/><stop offset="1" stop-color="#55c4c7"/></linearGradient><linearGradient id="c" x1="0" y1="364.07" x2="368.59" y2="364.07" gradientUnits="userSpaceOnUse"><stop offset="0" stop-color="#f68c1f"/><stop offset="1" stop-color="#fcee21"/></linearGradient><linearGradient id="d" x1="12.14" y1="101.51" x2="385.96" y2="101.51" gradientTransform="translate(348.82 268.59) rotate(-160.06) scale(1.03 1) skewX(-1.17)" gradientUnits="userSpaceOnUse"><stop offset="0" stop-color="#c44092"/><stop offset="1" stop-color="#ed2024"/></linearGradient></defs><rect x="-8.62" y="160.41" width="404.35" height="100.91" rx="50.45" ry="50.45" transform="translate(86.22 -54.48) rotate(20.52)" style="fill:url(#b); stroke-width:0px;"/><path d="m53.16,236.7s-47.5-1.56-51.63,47.91l-1.45,19.63s-13.66,192.28,316.88,187.1c0,0,49.1-.46,51.63-47.91,0,0,.52-44.24-51.63-47.91-52.15-3.67-213.77,25.32-212.18-110.91,0,0,.45-44.35-51.63-47.91Z" style="fill:url(#c); stroke-width:0px;"/><rect x="-9.23" y="53.27" width="404.72" height="100.91" rx="50.45" ry="50.45" transform="translate(410.37 133.16) rotate(159.48)" style="fill:url(#d); stroke-width:0px;"/></svg>