<?xml version="1.0" encoding="UTF-8"?>
<svg id="a" data-name="Layer 1" xmlns="http://www.w3.org/2000/svg" viewBox="0 0 512 512">
  <rect x="0" y="0" width="512" height="512" rx="256" ry="256" style="fill: #000; stroke-width: 0px;"/>
  <path d="m180.3,374.75V127.66h166.49v43.07h-114.25v58.88h105.69v43.07h-105.69v59h114.74v43.07h-166.98Z" style="fill: #fff; stroke-width: 0px;"/>
  <path d="m184.66,349.07s-16.43,39.35-50.64,35.93c0,0,30.46,13.62,67.41-10.3,36.96-23.92-16.77-25.63-16.77-25.63Z" style="fill: #fff; stroke-width: 0px;"/>
  <path d="m180.79,346.34s-1.81,17.79-15.23,28.4c-13.41,10.61-2.12,10.61-2.12,10.61l18.91-1.12s18.39-10.93,40.98-9.52-41.06-28.37-41.06-28.37h-1.47Z" style="fill: #fff; stroke-width: 0px;"/>
</svg>